<?xml version="1.0" standalone="no"?>
<!DOCTYPE svg PUBLIC "-//W3C//DTD SVG 20010904//EN"
 "http://www.w3.org/TR/2001/REC-SVG-20010904/DTD/svg10.dtd">
<svg version="1.0" xmlns="http://www.w3.org/2000/svg"
 width="700.000000pt" height="700.000000pt" viewBox="0 0 700.000000 700.000000"
 preserveAspectRatio="xMidYMid meet">
<metadata>
Created by potrace 1.14, written by Peter Selinger 2001-2017
</metadata>
<g transform="translate(0.000000,700.000000) scale(0.100000,-0.100000)"
fill="#000000" stroke="none">
<path d="M2057 6644 c-1 -1 -27 -4 -57 -8 -218 -22 -433 -158 -567 -359 -89
-133 -169 -361 -188 -537 -4 -36 -9 -78 -12 -95 -4 -37 -4 -389 1 -430 2 -16
6 -59 10 -95 4 -36 9 -76 11 -90 2 -14 7 -45 10 -70 5 -43 8 -61 20 -120 17
-81 18 -110 3 -110 -23 0 -233 -86 -368 -151 -445 -214 -754 -496 -864 -790
-72 -192 -71 -398 2 -584 137 -347 542 -672 1117 -896 61 -23 114 -46 119 -50
5 -5 2 -44 -7 -96 -100 -534 -76 -981 71 -1306 127 -280 370 -461 662 -493
135 -15 280 -5 425 30 165 39 412 152 597 272 112 72 258 176 298 211 14 12
56 46 95 77 l70 55 30 -28 c111 -107 418 -321 593 -415 163 -87 360 -165 457
-182 17 -2 59 -11 95 -18 41 -9 111 -13 190 -11 132 3 169 7 210 23 14 5 27 9
30 9 13 -1 90 28 135 51 194 97 331 255 429 496 23 55 65 213 71 266 3 25 7
56 10 70 16 80 22 401 11 500 -3 19 -7 69 -11 110 -3 41 -8 82 -10 90 -2 8 -7
40 -10 70 -4 30 -9 58 -10 61 -6 8 -19 99 -19 132 -1 27 5 31 124 78 188 75
431 198 562 286 142 95 170 117 270 213 238 227 352 479 334 739 -10 153 -57
286 -150 425 -149 223 -394 420 -730 586 -158 78 -376 170 -404 170 -15 0 -15
10 12 175 24 145 24 144 31 215 3 36 8 88 11 115 7 58 7 353 0 405 -2 19 -7
62 -11 95 -4 33 -11 76 -15 95 -5 19 -12 50 -15 68 -3 18 -17 68 -31 110 -111
331 -315 535 -614 614 -67 18 -112 23 -215 22 -146 0 -191 -5 -320 -40 -219
-58 -458 -176 -705 -347 -99 -69 -250 -187 -300 -233 -19 -19 -39 -29 -45 -25
-5 4 -55 44 -110 88 -288 231 -568 394 -823 480 -57 19 -114 36 -126 39 -27 5
-89 18 -96 19 -43 10 -276 25 -283 19z m278 -453 c156 -40 320 -119 512 -247
127 -85 318 -231 326 -249 3 -6 -35 -52 -83 -102 -94 -97 -290 -328 -406 -478
-43 -55 -78 -90 -90 -91 -10 -1 -59 -7 -109 -13 -91 -12 -107 -14 -180 -26
-22 -4 -52 -8 -66 -10 -66 -9 -266 -49 -377 -76 -68 -16 -127 -29 -131 -29 -4
0 -13 35 -21 78 -7 42 -15 84 -16 92 -2 8 -8 55 -14 105 -6 49 -13 106 -16
125 -11 92 -5 353 11 410 2 8 7 30 10 49 35 207 137 379 262 441 104 52 239
60 388 21z m2665 1 c155 -52 252 -189 310 -436 46 -194 44 -485 -4 -731 -1 -5
-8 -43 -16 -83 -15 -82 -4 -78 -126 -48 -34 8 -72 17 -85 20 -13 2 -44 9 -69
15 -45 10 -239 44 -315 55 -23 4 -50 8 -61 10 -12 2 -43 7 -70 10 -27 3 -69 9
-94 12 -25 3 -54 6 -64 7 -12 1 -55 48 -110 118 -121 155 -272 332 -385 452
l-92 98 39 32 c21 18 56 46 77 62 21 17 50 39 64 51 49 40 236 161 316 206
138 76 302 139 412 158 76 13 223 9 273 -8z m-1459 -843 c50 -53 178 -195 217
-240 l32 -36 -290 0 -289 0 62 71 c34 39 84 95 112 124 27 30 63 69 80 88 16
19 31 34 33 34 2 0 22 -18 43 -41z m424 -724 c33 -3 83 -8 110 -10 28 -2 55
-4 61 -4 6 -1 61 -74 121 -163 171 -254 323 -513 469 -801 l75 -147 -73 -143
c-39 -78 -100 -191 -133 -252 -142 -253 -167 -293 -339 -552 l-108 -162 -52
-5 c-250 -26 -345 -31 -601 -31 -137 0 -290 4 -340 8 -49 4 -121 10 -160 13
-38 3 -81 7 -95 9 -14 2 -30 4 -36 4 -9 1 -182 249 -241 346 -179 294 -255
430 -352 622 l-71 143 80 157 c144 285 259 483 447 766 101 152 129 187 149
189 13 1 36 3 52 4 15 2 79 6 142 10 63 3 117 8 119 10 6 5 712 -4 776 -11z
m-1695 -93 c0 -4 -24 -47 -54 -94 -51 -81 -107 -175 -155 -260 -11 -21 -29
-53 -39 -70 -10 -18 -24 -44 -31 -57 l-13 -24 -15 31 c-27 56 -131 377 -125
384 7 7 233 61 307 73 89 15 100 17 104 21 7 7 21 4 21 -4z m2585 -17 c24 -4
246 -52 281 -61 14 -4 24 -13 24 -24 0 -18 -115 -362 -130 -389 -5 -9 -19 8
-45 55 -21 38 -87 151 -147 251 -59 100 -108 184 -108 186 0 2 24 0 53 -5 28
-5 61 -11 72 -13z m-3382 -383 c58 -178 129 -365 205 -542 37 -88 39 -97 26
-122 -8 -15 -34 -78 -60 -140 -25 -62 -51 -126 -58 -143 -23 -52 -113 -306
-143 -402 -15 -51 -32 -93 -36 -93 -22 0 -234 90 -343 145 -447 228 -669 493
-619 740 30 146 178 318 405 467 140 92 496 265 550 267 11 0 32 -50 73 -177z
m4223 142 c224 -89 473 -230 599 -337 181 -155 262 -287 266 -434 7 -256 -313
-550 -832 -763 -67 -28 -127 -50 -133 -50 -7 0 -22 34 -34 76 -38 128 -127
370 -205 557 l-74 179 63 148 c70 164 180 462 215 583 13 42 28 77 34 77 6 0
51 -16 101 -36z m-3654 -1416 c94 -167 141 -248 200 -339 l36 -55 -31 3 c-31
4 -409 84 -415 88 -5 4 136 415 143 415 2 0 32 -51 67 -112z m3029 -9 c66
-186 97 -289 89 -294 -8 -5 -244 -59 -305 -70 -16 -3 -43 -7 -60 -10 -16 -3
-39 -8 -49 -12 -26 -7 -22 2 77 164 46 76 109 184 141 241 32 57 60 102 62 99
2 -2 22 -55 45 -118z m-3229 -743 c223 -53 455 -94 683 -121 89 -11 92 -13
174 -120 108 -139 281 -343 383 -450 46 -48 86 -93 90 -99 12 -21 -305 -257
-462 -345 -135 -75 -265 -129 -385 -160 -93 -24 -257 -26 -323 -4 -123 42
-215 141 -271 294 -88 239 -97 560 -24 934 14 77 20 95 28 95 2 0 50 -11 107
-24z m3447 -38 c7 -35 18 -99 27 -143 23 -130 29 -201 29 -375 0 -195 -5 -228
-52 -374 -64 -201 -126 -286 -253 -349 -61 -30 -70 -32 -180 -32 -63 0 -128 4
-145 8 -16 4 -39 9 -50 11 -107 23 -350 135 -480 221 -154 102 -366 264 -362
277 1 4 34 40 72 80 98 102 205 224 344 393 9 11 43 56 76 99 33 43 69 82 80
86 12 4 50 11 85 15 36 4 72 8 80 10 8 1 40 6 70 10 30 4 64 9 75 11 10 2 37
6 60 10 67 9 468 93 473 99 3 3 13 5 23 5 13 0 20 -14 28 -62z m-1562 -212
c-34 -39 -85 -96 -113 -126 -29 -30 -66 -71 -84 -90 l-32 -34 -26 29 c-14 17
-55 62 -91 101 -36 39 -89 98 -118 131 l-52 60 289 0 289 0 -62 -71z"/>
<path d="M3350 4094 c-199 -52 -368 -212 -436 -414 -23 -68 -27 -282 -6 -345
74 -219 239 -377 452 -431 49 -12 90 -15 165 -11 55 3 107 7 115 9 102 26 205
85 285 163 120 118 173 235 182 400 4 73 1 119 -11 170 -52 222 -228 402 -451
460 -74 19 -221 19 -295 -1z"/>
</g>
</svg>
